<?xml version="1.0" standalone="no"?>
<!DOCTYPE svg PUBLIC "-//W3C//DTD SVG 20010904//EN"
 "http://www.w3.org/TR/2001/REC-SVG-20010904/DTD/svg10.dtd">
<svg version="1.0" xmlns="http://www.w3.org/2000/svg"
 width="500.000000pt" height="500.000000pt" viewBox="0 0 500.000000 500.000000"
 preserveAspectRatio="xMidYMid meet">

<g transform="translate(0.000000,500.000000) scale(0.100000,-0.100000)"
fill="#000000" stroke="none">
<path d="M1103 3677 c-707 -706 -803 -806 -803 -832 0 -17 171 -532 380 -1145
273 -799 387 -1121 403 -1138 21 -21 86 -31 918 -147 491 -69 913 -126 936
-126 24 -1 53 5 65 14 13 8 375 322 805 697 564 491 785 689 790 708 9 38
-699 2168 -731 2197 -26 24 -1872 576 -1926 575 -33 0 -83 -48 -837 -803z
m1815 68 c513 -269 929 -492 925 -496 -11 -10 -2213 -592 -2219 -586 -4 4 326
1506 342 1560 3 9 8 16 12 14 4 -2 427 -224 940 -492z m141 207 l664 -197 64
-189 c34 -104 62 -191 60 -192 -1 -1 -306 158 -677 353 -371 195 -709 372
-750 394 -41 21 -64 36 -50 33 14 -3 324 -94 689 -202z m-1381 -566 c-113
-510 -167 -736 -176 -736 -7 0 -220 45 -473 100 -253 55 -463 100 -467 100 -4
0 281 288 633 640 351 351 641 638 643 636 2 -3 -70 -335 -160 -740z m2242
-243 c0 -24 -590 -2286 -598 -2295 -4 -4 -382 378 -840 849 -457 471 -830 858
-828 860 4 5 2236 601 2254 602 6 1 12 -7 12 -16z m460 -1374 c0 -8 -911 -802
-914 -797 -2 2 452 1755 510 1968 5 19 54 -119 205 -570 110 -327 199 -598
199 -601z m-3360 880 c256 -56 466 -103 468 -104 3 -3 -315 -1560 -326 -1592
-5 -17 -89 217 -315 880 -169 496 -307 905 -307 910 0 4 3 7 8 7 4 0 216 -46
472 -101z m1400 -1029 c566 -582 806 -836 793 -837 -44 -5 -1845 -44 -1914
-41 l-75 3 178 865 c97 476 177 867 178 870 0 2 6 -2 14 -10 8 -8 379 -391
826 -850z m700 -954 c-8 -7 -57 -51 -109 -96 -84 -73 -97 -81 -125 -76 -17 3
-263 37 -546 76 -283 39 -519 72 -525 74 -5 3 37 5 95 6 58 1 312 8 565 14
671 19 662 19 645 2z"/>
<path d="M2607 3789 c-60 -14 -115 -47 -132 -79 -19 -37 -20 -149 0 -212 47
-155 188 -348 281 -384 93 -35 229 -4 289 68 26 31 27 36 23 113 -12 187 -176
442 -315 489 -51 17 -88 19 -146 5z m155 -149 c64 -71 168 -295 168 -362 0
-32 -36 -58 -82 -58 -35 0 -47 6 -80 41 -44 46 -140 237 -159 317 -15 59 -8
78 32 100 38 20 80 7 121 -38z"/>
<path d="M2060 3664 c-120 -33 -166 -91 -158 -199 8 -94 10 -95 93 -76 75 18
74 17 61 84 -5 23 0 35 23 58 55 54 147 34 186 -41 31 -61 15 -102 -95 -246
-76 -99 -98 -168 -85 -262 11 -84 -5 -83 277 -7 139 37 257 72 262 76 9 8 -29
105 -46 115 -4 3 -77 -14 -163 -37 -85 -23 -158 -39 -161 -36 -9 8 13 44 86
142 104 139 119 200 70 295 -58 113 -213 172 -350 134z"/>
</g>
</svg>
